<svg width="244" height="283" viewBox="0 0 244 283" fill="none" xmlns="http://www.w3.org/2000/svg">
<path fill-rule="evenodd" clip-rule="evenodd" d="M64.4502 63.5194C64.1606 68.2499 63.871 72.9796 63.5818 77.7101C65.4437 77.1739 77.2872 73.6892 76.5558 77.2224C76.0307 79.7566 72.7011 82.498 71.0045 84.2623C69.4433 85.8867 67.8352 87.4689 66.1866 89.0047C69.2168 87.8446 72.2724 86.7461 75.3498 85.7185C77.6785 84.9408 80.0245 84.1819 82.4107 83.599C83.2963 83.3824 85.6878 82.4992 86.5246 83.1014C88.7233 84.684 76.7933 96.3392 75.1591 97.9821C77.4698 96.9073 79.8362 95.931 82.2425 95.0934C83.9801 94.4887 89.3481 92.1772 90.8856 94.1511C92.5313 96.2629 88.4543 101.112 87.3233 102.649C85.7034 104.853 83.9477 106.966 82.1055 108.987C89.762 115.864 98.7595 121.985 108.335 125.789C115.356 128.579 122.252 129.289 129.661 127.758C137.272 126.185 144.571 123.169 151.509 119.721C155.584 117.695 159.606 115.503 163.437 113.041C161.857 111.12 160.324 109.159 158.834 107.168C156.708 104.325 154.095 101.219 152.882 97.8348C151.696 94.5228 156.147 95.1693 158.282 95.3494C161.375 95.6098 164.458 96.1624 167.489 96.8236C165.346 95.3334 163.242 93.7836 161.181 92.1834C158.494 90.0979 154.91 87.74 153.152 84.7398C151.605 82.1017 154.999 82.7679 156.569 83.1133C160.31 83.9378 163.951 85.3424 167.52 86.7125C170.134 87.7158 172.732 88.7668 175.304 89.8735C173.707 88.4854 172.164 87.0308 170.681 85.5229C168.687 83.496 165.999 81.0204 165.105 78.2294C163.285 72.5448 175.529 76.8327 177.619 77.7101C177.233 71.8216 176.847 65.9331 176.461 60.0446C160.249 64.3583 144.037 68.6728 127.824 72.987C126.072 73.4534 123.88 74.4686 122.052 74.5228C120.397 74.5724 118.398 73.8271 116.785 73.519L87.4468 67.9135C79.7813 66.4487 72.1157 64.9843 64.4502 63.5194Z" fill="#03A61C"/>
<path fill-rule="evenodd" clip-rule="evenodd" d="M238.697 266.056C236.947 267.058 234.897 267.831 232.952 268.35C231.81 268.655 229.923 269.596 228.92 268.734C228.438 268.319 228.328 267.378 228.044 266.833C227.594 265.97 226.955 265.224 226.356 264.461C224.904 262.613 223.394 260.829 221.813 259.089C221.064 258.265 219.696 256.341 218.376 256.467C216.731 256.625 216.771 258.901 217.183 260.065C218.496 263.768 222.469 266.996 225.064 269.787C224.404 270.802 220.78 270.681 219.774 270.443C218.237 270.081 218.082 268.987 217.381 267.735C215.741 264.811 212.414 263.175 209.679 261.455C208.682 260.828 206.562 259.091 205.263 259.528C204.032 259.942 204.085 261.515 204.477 262.542C205.069 264.095 206.755 265.172 208.001 266.153C209.664 267.461 211.183 268.885 212.568 270.486C210.572 270.649 208.583 270.93 206.592 271.094C204.183 271.293 202.176 269.971 199.959 269.222C197.899 268.526 195.846 267.937 193.821 267.135C191.546 266.235 189.164 265.921 186.87 265.131C177.866 262.03 169.044 258.13 160.368 254.199C156.234 252.325 152.185 250.451 147.877 248.985C144.737 247.916 139.804 245.786 139.054 242.047C138.657 240.071 140.101 237.946 140.314 235.972C140.563 233.65 140.367 231.094 139.659 228.866C139.036 226.903 138.002 225.085 137.188 223.201C136.239 221.004 137.089 221.04 138.932 220.79C141.138 220.491 143.712 219.249 145.786 218.44C148.175 217.508 150.543 216.206 152.73 214.867C154.709 213.656 156.431 212.094 158.006 210.399C159.609 208.675 160.646 206.631 162.195 204.864C167.913 211.896 173.348 219.035 179.424 225.763C182.291 228.939 185.41 231.565 188.944 233.98C190.419 234.988 191.883 236.14 193.491 236.937C195.501 237.935 197.749 238.554 199.815 239.465C207.738 242.955 215.299 246.772 222.69 251.276C226.266 253.455 229.267 255.953 232.415 258.686C233.396 259.537 241.423 264.496 238.697 266.056ZM145.758 208.447C144.478 209.027 143.257 209.78 141.891 210.153C142.279 207.796 144.477 204.242 147.296 204.633C148.373 204.783 149.186 205.619 148.713 206.772C148.282 207.82 146.67 208.034 145.758 208.447ZM56.6395 144.54C55.1882 145.341 53.8358 145.808 52.9846 144.088C53.6151 143.961 56.4787 143.579 56.6395 144.54ZM54.223 139.677C53.1011 139.337 53.9982 138.979 54.3842 138.569C54.6849 138.249 55.6805 137.128 56.0287 136.943C57.5674 136.128 58.7566 139.161 59.4925 140.146C57.7508 139.99 55.9184 140.191 54.223 139.677ZM66.2162 150.177C64.0901 150.538 64.326 147.877 64.3895 146.53C64.8379 147.077 67.8738 149.897 66.2162 150.177ZM73.2619 145.583C70.6698 146.02 68.9572 141.542 69.422 139.583C69.8305 137.857 71.8393 136.894 73.4387 136.639C74.9884 136.393 77.1466 136.729 77.6068 138.517C78.0137 140.097 74.9893 145.291 73.2619 145.583ZM134.618 213.186C132.755 213.758 130.93 213.83 129.058 214.392C126.934 215.03 124.968 214.973 122.839 215.407C121.973 215.583 119.637 216.845 118.793 216.563C117.956 216.284 116.745 213.688 116.264 213.013C120.03 211.447 123.243 209.426 125.725 206.128C127.698 203.505 129.815 199.575 128.573 196.19C127.173 192.373 122.346 191.545 119.127 193.139C117.604 193.893 116.095 194.83 114.84 195.979C113.404 197.293 112.84 198.727 111.91 200.347C110.97 201.985 110.31 201.073 109.37 199.682C108.567 198.493 108.672 197.292 107.668 196.119C107.156 195.52 106.363 194.942 106.096 194.169C105.927 193.679 106.284 192.809 105.963 192.423C105.511 191.881 104.961 192.518 104.583 192.034C104.308 191.683 104.398 190.881 104.114 190.44C103.867 190.19 103.594 189.977 103.291 189.799C102.923 189.618 102.856 189.391 103.089 189.118C102.797 188.577 103.079 188.394 102.453 187.736C101.478 186.71 100.588 185.728 99.8937 184.517C99.5766 183.963 99.6078 183.141 99.2136 182.661C98.6725 182.003 97.7713 182.101 97.3061 181.286C96.8918 180.56 97.1691 179.29 96.4857 178.63C96.1256 178.527 95.765 178.426 95.4044 178.327C95.1329 178.063 94.9749 177.743 94.9298 177.367C94.5504 176.783 94.4749 176.096 93.9958 175.479C93.0785 174.298 91.845 173.208 91.0349 171.963C90.1833 170.655 90.6349 170.434 92.1142 169.966C93.4481 169.543 94.6664 169.151 95.9032 168.432C101.62 165.105 107.04 156.279 97.9657 153.583C94.5984 152.582 91.8319 149.891 88.0978 150.949C86.4792 151.408 84.9437 152.384 83.7361 153.542C82.9017 154.343 82.1289 156.485 81.1046 156.895C79.2628 157.633 80.0414 155.79 79.5188 154.943C79.269 154.539 78.2644 154.074 77.8919 153.706C77.455 153.275 77.0325 152.73 76.729 152.197C76.1657 151.207 75.8212 150.655 75.009 149.849C74.703 149.545 73.1741 147.973 74.5528 148.179C73.9945 146.477 74.8092 146.221 75.9356 144.977C77.2581 143.517 78.6237 141.489 78.6315 139.443C78.6467 135.515 73.9925 133.755 71.0693 136.087C70.4745 136.561 66.9566 141.141 67.6765 138.22C68.0646 136.645 71.658 132.533 73.3238 133.597C71.457 130.876 67.1683 137.483 66.1674 138.835C65.315 137.265 65.2547 136.038 63.8444 134.823C62.6962 136.664 63.3025 134.652 63.0494 134.243C62.5026 133.359 62.8029 134.369 62.5063 134.056C62.1371 133.665 61.5558 133.357 61.1629 132.839C60.4897 133.752 60.7588 132.77 60.5525 132.429C60.0705 131.631 60.2567 131.169 59.4306 130.475C58.8292 129.971 57.6445 129.188 56.8352 129.116C55.902 129.033 55.6435 129.391 54.6927 129.127C53.483 128.79 51.9607 128.273 52.5461 130.297C52.9715 131.767 54.7001 132.603 55.0787 134.105C55.4598 135.617 53.9646 137.141 53.2393 138.38C52.3077 139.971 51.546 139.841 49.8584 140.2C48.78 140.429 47.3406 140.919 48.2656 142.227C48.926 143.162 50.4741 142.965 51.3458 143.519C52.5682 144.295 52.5514 146.209 54.1122 146.542C55.831 146.909 56.8155 144.995 58.2648 144.533C59.2952 144.205 62.4874 144.241 63.2984 145.015C64.4035 146.069 63.4485 148.083 63.7267 149.393C64.1406 151.335 65.4544 151.454 67.1162 151.516C69.1619 151.592 69.881 153.556 70.9811 155.115C73.5581 158.764 75.7978 162.654 78.4375 166.255C79.6061 167.85 81.3155 169.268 82.2721 170.998C83.4535 173.135 81.8135 174.368 80.3978 175.902C78.5482 177.906 77.1675 180.187 75.5632 182.377C74.1377 184.324 72.366 183.839 70.0881 183.839C70.5956 182.793 71.2064 182.14 72.4554 182.267C71.1493 180.673 70.1049 182.497 69.2579 183.507C68.0322 184.968 66.4344 185.321 64.8601 186.282C64.303 186.621 61.2695 188.825 62.1912 189.577C62.2958 189.663 67.3176 186.359 67.8894 186.056C67.8894 187.276 67.6228 188.543 67.7939 189.755C67.919 190.645 68.5441 191.572 68.4108 192.497C68.1585 194.242 65.9028 195.617 64.9347 196.977C64.2058 198.001 64.3818 198.808 64.0109 199.906C63.6725 200.909 63.8501 200.605 63.0072 200.915C61.2909 201.546 58.4018 201.206 56.8475 200.309C55.8827 199.753 55.1431 198.873 54.3592 198.098C53.7689 197.514 52.284 196.516 52.1199 195.698C51.8385 194.29 54.6332 191.675 55.1862 190.223C56.7482 186.125 54.0696 182.939 49.9011 182.707C51.1858 181.716 52.7782 182.462 54.1323 182.841C51.8175 179.633 47.8636 182.272 45.8999 184.452C44.5581 181.061 43.9112 177.483 43.0916 173.946C42.5334 171.537 40.4081 167.239 41.3561 164.759C41.8143 163.561 43.108 162.892 44.0027 162.061C45.0196 161.116 45.8905 159.987 46.6338 158.817C48.3849 156.063 49.3965 152.586 46.9849 149.872C47.7175 149.751 48.4506 149.631 49.1832 149.511C47.9915 148.391 46.1112 148.936 44.5647 148.604C43.5835 148.394 40.7596 148.53 40.1045 147.975C39.3165 147.307 39.8215 144.234 39.8498 143.325C39.9146 141.2 40.0922 139.157 40.3268 137.044C40.5492 135.049 40.5045 132.893 40.9167 130.933C41.2515 129.342 42.3213 128.857 43.5556 127.92C46.5058 125.678 48.91 122.951 47.9025 119.088C48.2594 119.031 48.6163 118.975 48.9732 118.918C47.8189 118.083 46.3253 118.387 45.0414 117.946C46.2203 114.627 48.828 108.793 53.0621 108.479C53.2077 109.963 53.1081 111.727 54.109 112.955C55.2485 114.353 57.2487 114.494 58.7923 113.754C60.1931 113.083 61.5079 111.659 62.1535 110.253C62.5904 109.301 62.5116 107.691 63.2783 106.937C64.3063 105.924 71.395 106.535 71.178 108.243C71.0501 109.248 69.1545 110.936 68.6249 111.826C67.6552 113.455 66.8791 115.216 66.523 117.087C65.9828 119.928 66.2958 123.679 69.1807 125.173C72.462 126.872 76.4607 124.712 79.1516 122.845C80.6292 121.82 82.0604 120.689 83.41 119.501C84.1291 118.87 84.8514 118.218 85.4852 117.5C85.9533 116.969 86.327 116.114 86.9029 115.716C88.2635 114.778 89.5971 116.37 90.7486 117.174C92.624 118.485 94.4901 119.729 96.5034 120.82C100.588 123.033 104.323 125.964 107.935 128.874C111.568 131.802 115.314 134.814 118.257 138.461C116.474 139.557 116.792 139.842 115.999 141.798C115.436 143.186 114.661 144.367 114.572 145.91C114.417 148.571 116.126 150.839 118.719 151.429C120.169 151.758 121.551 151.494 122.894 150.901C123.939 150.44 124.979 149.306 126.071 149.024C128.099 148.501 129.721 152.332 130.858 153.682C135.907 159.675 141.244 165.432 145.998 171.671C146.524 172.361 148.088 173.711 148.216 174.626C148.398 175.94 146.331 177.192 145.475 177.945C145.024 178.34 140.251 182.83 141.854 183.544C142.311 183.747 143.648 180.992 143.982 180.756C145.234 179.874 144.287 181.603 144.213 182.478C144.026 184.65 145.518 185.834 147.616 185.558C149.854 185.264 151.847 183.498 153.232 181.829C154.968 183.839 157.681 186.878 158.183 189.564C158.504 191.279 157.019 195.479 159.79 195.829C160.213 195.882 161.744 194.746 162.03 195.391C162.268 195.929 160.613 196.849 160.374 197.027C159.354 197.788 158.738 198.604 157.915 199.526C156.948 200.609 155.628 201.521 154.54 202.558C153.394 203.65 151.128 206.617 149.616 205.184C148.857 204.463 149.057 203.522 147.839 203.099C146.731 202.713 145.327 203.202 144.297 203.629C143.138 204.109 139.319 205.863 138.895 207.308C138.311 209.299 141.467 206.905 142.028 206.555C141.388 208.179 141.035 210.532 139.405 211.479C138.051 212.266 136.103 212.729 134.618 213.186ZM112.971 200.899C114.055 197.416 120.446 191.205 124.486 193.147C119.778 194.134 116.042 197.356 112.971 200.899ZM115.361 210.874C113.786 209.996 113.871 207.446 113.321 205.954C113.006 205.098 112.374 204.473 112.56 203.523C112.777 202.409 114.198 201.171 114.954 200.369C117.333 197.841 121.52 194.386 125.35 194.966C130.224 195.703 126.92 202.248 125.26 204.502C123.845 206.423 118.394 212.564 115.361 210.874ZM103.99 206.614C98.7181 206.262 93.4645 205.79 88.2648 204.823C86.4213 204.48 84.8769 204.53 85.9315 202.411C86.2798 201.711 88.3796 197.327 88.8538 197.453C89.1348 197.527 89.0708 200.541 89.1533 200.886C89.5258 202.437 90.571 203.883 92.3332 203.784C95.2165 203.624 97.0748 199.896 98.5929 197.895C99.8092 199.53 100.69 201.347 101.912 202.954C102.496 203.723 104.531 205.511 103.99 206.614ZM73.0839 185.921C72.1995 187.95 70.4208 189.881 69.1836 191.719C68.4842 190.239 67.9924 186.84 69.6513 185.745C70.2793 185.331 73.643 184.637 73.0839 185.921ZM91.3672 191.964C91.6104 191.183 91.8799 190.408 92.1806 189.647C92.6962 191.27 92.96 191.318 91.3672 191.964ZM95.8794 193.627C96.5193 194.711 97.5859 195.778 97.4185 197.14C97.2918 198.172 96.359 199.23 95.6928 199.949C94.5902 201.138 92.1478 203.422 90.5504 201.842C89.216 200.523 89.6808 196.894 90.3014 195.409C91.1875 193.287 94.3543 191.043 95.8794 193.627ZM92.7487 191.404C93.1155 191.258 92.3451 188.891 93.0601 188.655C93.6836 190.077 94.2714 190.462 92.7487 191.404ZM82.6757 159.546C82.4382 158.673 81.8935 158.709 82.0895 157.63C82.2183 156.922 82.7803 156.166 83.2065 155.605C84.0561 154.487 85.1767 153.565 86.3885 152.867C88.9469 151.395 92.46 150.783 94.7505 153.088C92.6093 153.426 86.0447 155.54 86.0029 158.469C88.3841 158.01 90.2567 155.618 92.645 154.865C94.6053 154.246 96.731 154.289 98.6811 154.943C104.019 156.731 101.8 161.345 98.7866 164.341C96.9981 166.121 94.8535 167.449 92.5092 168.366C91.4242 168.79 90.7584 168.837 89.6919 168.623C89.4921 168.583 89.2587 168.213 89.0191 168.133C88.4239 167.936 88.5966 168.604 88.1064 168.304C87.6786 168.043 86.7663 166.355 86.4755 165.871C86.0123 165.102 85.7966 164.354 85.228 163.652C84.6591 162.949 84.3822 162.008 83.8559 161.372C83.6032 161.066 82.9103 161.078 82.7245 160.78C82.4452 160.332 82.8008 160.005 82.6757 159.546ZM74.4778 193.955C75.6911 191.847 77.7668 190.057 79.3727 188.215C79.4712 191.243 77.3 193.317 74.4778 193.955ZM76.1173 194.929C78.6229 194.047 80.0032 191.938 80.2588 189.381C80.5833 186.141 82.6171 184.441 83.8415 181.531C84.3112 180.415 84.8584 176.745 86.6785 177.796C87.3028 178.156 87.6733 179.511 87.9986 180.123C88.7857 181.604 89.6808 183.04 90.5156 184.494C91.1953 185.678 92.2142 186.869 91.9144 188.294C91.6527 189.537 90.8113 190.861 90.3183 192.033C89.1545 194.801 87.6257 197.35 86.3483 200.057C85.8331 201.149 85.2231 203.734 83.6495 203.721C82.4042 203.711 82.5432 202.349 81.7232 201.882C80.6883 201.293 79.5114 202.414 78.661 202.879C79.6402 201.226 81.352 200.29 83.2758 200.601C80.9721 198.307 79.4154 201.402 77.4382 202.092C75.5648 202.745 72.2413 199.664 70.6641 198.791C71.2675 197.769 71.8126 196.519 72.8505 195.847C73.8345 195.209 75.0426 195.307 76.1173 194.929ZM55.7473 215.895C56.0218 214.574 56.797 213.794 57.2885 212.594C57.8582 214.048 56.5238 214.906 55.7473 215.895ZM95.5545 224.002C95.42 228.451 95.0566 232.887 94.9253 237.337C94.865 239.39 94.5015 241.347 94.2603 243.376C94.0565 245.091 94.1603 246.776 93.0806 248.241C91.3782 250.552 88.0683 251.216 85.4987 252.072C83.6118 252.7 81.7031 253.271 79.8395 253.969C78.1626 254.597 76.8114 255.549 75.2169 256.296C73.7907 256.964 72.2512 257.36 70.8314 258.072C69.3629 258.809 68.2024 259.706 66.6941 260.362C64.8884 261.147 63.4005 262.543 61.7946 263.652C60.381 264.628 58.8854 265.381 57.6691 266.608C56.5288 267.759 55.0852 268.264 53.7931 269.287C52.4267 270.368 50.9963 271.071 49.4868 271.919C46.3942 273.657 42.222 276.625 38.5002 274.937C39.5647 273.577 41.7433 272.271 41.909 270.398C42.1244 267.958 40.0007 268.856 38.7709 269.635C36.9082 270.815 35.8778 272.24 34.4597 273.813C32.802 275.651 30.7079 274.414 28.6795 273.897C30.0664 272.649 31.4422 271.389 32.8266 270.138C33.9953 269.082 35.7838 267.941 36.4955 266.481C37.0042 265.437 36.9792 264.006 35.7518 263.465C34.3785 262.859 32.8254 264.136 31.8081 264.897C29.1081 266.918 27.3299 269.479 25.557 272.291C24.6139 273.786 24.1795 273.671 22.4443 273.372C20.6058 273.056 18.7672 272.718 16.9135 272.496C19.369 269.974 22.1133 267.242 24.0527 264.291C24.6812 263.335 25.5008 260.815 23.5863 260.583C22.7975 260.488 21.2268 262.101 20.6185 262.536C17.9591 264.436 15.4023 266.834 13.6401 269.609C13.058 270.525 12.8755 271.544 11.7486 271.62C10.2756 271.72 7.53867 270.314 6.11771 269.879C8.83328 266.456 11.53 263.008 14.7029 259.988C17.6183 257.214 20.5262 255.199 23.9358 253.071C27.59 250.79 30.9938 248.165 34.3485 245.47C37.56 242.89 40.9147 240.457 43.8706 237.578C49.7755 231.825 55.0348 225.209 59.39 218.213C60.4089 216.576 61.3684 214.896 62.1974 213.154C62.9764 211.519 63.3353 209.562 64.3867 208.075C64.7497 207.56 65.2616 207.179 65.5853 206.642C65.8905 206.137 65.7871 205.527 66.2527 205.079C67.3295 204.046 69.2903 204.669 70.2965 205.394C71.9152 206.559 73.2246 207.973 75.0036 208.949C76.793 209.929 78.7283 210.643 80.7096 211.125C85.34 212.251 89.9306 213.175 94.648 213.859C94.1627 215.659 95.3548 215.942 95.7498 217.562C96.2293 219.528 95.6148 222 95.5545 224.002ZM50.9676 193.982C49.9179 192.422 48.981 190.791 47.9489 189.221C47.3205 188.265 46.5415 187.238 47.0788 186.069C47.9834 184.097 51.1752 183.746 52.9071 184.606C56.8446 186.56 53.1868 192.147 50.9676 193.982ZM40.5455 158.307C40.1829 155.258 41.3487 153.095 44.1069 151.497C46.0726 150.357 47.6556 151.914 47.3869 153.991C46.9788 157.156 43.5974 160.675 41.0168 162.326C40.8482 160.988 40.7051 159.647 40.5455 158.307ZM40.125 149.584C40.9385 148.938 43.1175 149.762 44.0601 149.818C42.7639 150.951 41.4672 152.084 40.1706 153.216C40.0857 152.439 39.3743 150.18 40.125 149.584ZM44.4995 120.14C51.0595 119.287 43.508 126.327 41.6067 127.431C41.916 125.933 42.6761 120.378 44.4995 120.14ZM61.9636 107.815C61.0829 111.423 54.2349 115.359 54.1631 109.449C54.1369 107.247 55.3736 107.425 57.1794 107.213C58.2094 107.093 62.4673 105.752 61.9636 107.815ZM38.3099 113.403C37.5411 115.42 36.9246 117.49 36.1711 119.511C35.8372 120.405 35.4446 121.02 34.8227 121.728C34.3022 122.321 33.6827 122.471 33.7032 123.407C34.3555 123.282 34.8658 122.893 35.3925 122.518C35.2649 124.375 34.6086 126.374 34.2907 128.225C33.91 130.444 33.5929 132.665 33.4752 134.915C33.22 139.81 33.218 144.686 33.3255 149.584C33.3804 152.079 33.405 154.576 33.5396 157.069C33.6069 158.309 33.6827 159.554 33.8362 160.786C33.8985 161.284 34.2595 162.343 34.0363 162.809C33.1601 164.64 29.2788 159.612 27.5932 160.35C27.8357 158.957 27.2765 159.262 26.3425 158.576C25.8901 158.245 25.5955 157.68 25.1238 157.384C24.981 157.23 24.8239 157.093 24.6525 156.973C24.4576 156.707 24.2517 156.735 24.0355 157.057C22.1363 155.922 21.6456 153.503 20.6263 151.876C20.102 151.039 19.5954 150.909 19.506 149.751C19.4285 148.743 19.5803 147.716 19.5392 146.703C19.4929 145.561 19.426 144.302 19.1057 143.196C18.734 141.912 18.2225 142.017 17.2261 141.333C17.5329 141.199 17.7356 140.973 17.8336 140.657C17.5153 140.713 16.5484 141.107 16.3081 140.824C15.8355 140.267 16.9504 140.193 17.2433 139.971C15.9934 139.416 16.2625 138.96 16.7137 137.943C16.8413 137.655 16.9632 137.225 17.0719 136.982C17.309 136.452 17.4456 136.788 17.5239 136.129C17.5982 135.501 17.0415 134.266 16.8774 133.597C16.6026 132.475 16.4504 131.505 16.6973 130.336C16.8975 129.389 17.4361 128.532 17.4734 127.558C17.4841 127.285 17.0678 127.194 17.062 126.93C17.0538 126.544 17.414 126.375 17.5075 126.018C17.7466 125.106 17.6388 124.141 18.0477 123.276C18.4157 122.498 19.159 121.492 19.6849 120.813C20.0495 120.343 20.9442 119.813 21.0422 119.193C21.1071 118.781 20.4667 118.829 20.495 118.519C20.534 118.099 20.886 117.963 20.9824 117.651C21.2486 116.796 21.3154 115.974 22.0034 115.318C22.8701 114.493 23.2463 114.839 23.2824 113.477C23.2996 112.813 22.7684 112.711 23.0531 111.945C23.2077 111.53 23.6639 111.284 23.9555 110.989C24.8219 110.116 25.406 109.339 26.023 108.259C26.5685 107.306 27.4386 106.75 27.9977 105.927C28.7254 104.853 27.6371 104.32 29.1143 104.017C28.9043 103.35 28.6811 102.811 29.2336 102.247C29.5823 101.891 30.4663 102.109 30.7748 101.697C31.1284 101.224 30.6058 100.104 31.1386 99.7972C31.5718 99.5482 32.2204 100.317 32.9013 99.9363C33.4198 99.6463 34.2033 98.0456 34.0363 97.4574C35.3777 98.2118 35.0434 97.6921 35.6854 96.724C35.8293 96.507 36.2654 96.459 36.3893 96.2399C36.637 95.8018 36.5804 95.3555 36.9377 94.9995C37.5325 94.4071 38.5059 94.5593 39.1606 94.136C39.7017 93.7865 39.673 93.4095 40.1045 93.0797C40.4733 92.7979 41.0792 92.7437 41.4377 92.4517C42.14 91.8794 42.1469 91.2756 43.0256 90.783C44.0663 90.1996 44.988 89.7033 45.9348 88.9301C46.5517 88.4263 47.1375 87.5329 47.8595 87.2002C48.8579 86.7404 49.6357 86.708 50.6124 86.0516C51.3183 85.5774 51.9857 84.7948 52.6786 84.3948C53.2016 84.0937 53.5683 84.1585 54.2271 83.9719C55.413 83.6355 55.7018 82.5181 56.6691 82.0632C57.3332 81.751 58.3 82.0369 59.0294 81.8729C61.2986 81.3634 63.5404 80.2644 65.8179 79.6557C68.5974 78.9132 71.3971 78.2626 74.198 77.6059C71.6239 81.0947 68.3456 84.2426 65.0204 87.0136C63.9289 87.923 57.9481 92.0698 61.1719 93.8406C62.4661 94.5511 65.2772 92.2556 66.322 91.6944C68.426 90.5643 70.605 89.6598 72.8086 88.7459C76.3717 87.2679 81.0119 84.6393 84.9716 84.851C82.5613 87.8081 79.5524 90.182 76.7954 92.7946C74.262 95.1951 70.4446 97.4472 71.6391 101.377C68.0806 100.471 64.8843 99.401 61.1842 99.6381C59.527 99.7443 57.8685 99.545 56.2186 99.7771C54.4248 100.031 52.7356 100.631 51.0115 101.158C49.6476 101.574 48.1405 101.607 46.8856 102.3C46.2794 102.635 45.5295 103.113 44.9847 103.529C44.2583 104.083 44.0934 104.45 43.5228 105.18C41.4881 107.786 39.5192 110.228 38.3099 113.403ZM27.1797 162.717C27.0686 162.266 26.9677 161.855 26.8401 161.34C27.9727 162.037 27.9727 162.037 27.1797 162.717ZM18.62 148.355C18.4805 148.547 17.8939 148.609 17.7237 148.443C17.5116 148.236 18.0691 147.429 18.1585 147.258C18.3796 147.427 18.8882 147.983 18.62 148.355ZM16.1952 143.127C16.345 142.576 16.4955 142.026 16.6452 141.475C16.8294 141.986 17.6597 142.55 17.6781 143.037C17.6896 143.359 16.3593 143.198 16.1952 143.127ZM16.6764 143.882C17.976 144.738 18.1121 145.748 18.1507 147.224C16.5956 146.709 16.8188 145.204 16.6764 143.882ZM39.2767 85.609C39.1459 85.9639 38.5888 87.0702 38.1811 86.2965C38.0506 86.0488 39.0056 85.7108 39.2767 85.609ZM38.9038 84.403C39.225 84.1134 39.8723 84.4736 40.2358 84.2398C40.4905 84.0757 40.406 83.9091 40.5258 83.8119C40.5496 83.7926 40.8958 83.0916 41.0377 82.9324C41.2884 82.6531 41.8348 82.4787 42.1391 82.2261C42.9903 81.5209 43.4707 80.593 44.0064 79.6496C44.6451 78.5231 44.849 78.3927 45.8794 77.8766C46.5899 77.5214 47.1404 77.0862 47.7184 76.4815C48.3845 75.7854 48.3357 75.287 48.8825 74.5261C49.1528 74.1507 49.5417 74.104 49.8564 73.8012C50.2337 73.439 50.4253 72.932 50.7744 72.5665C50.9249 72.4082 51.409 72.4086 51.5 72.2732C51.6165 72.1018 51.7072 71.4163 51.8163 71.29C52.0243 71.5714 52.2331 71.8528 52.4411 72.1342C53.2623 70.6898 53.8616 69.4965 55.235 68.5354C56.6773 67.5259 57.9222 66.0492 59.4129 65.1455C59.7481 64.9424 60.4306 64.8571 60.6866 64.5577C61.1194 64.0511 60.7445 63.6006 61.0603 63.1703C61.4184 62.683 62.1125 63.0776 62.5678 62.8676C63.1442 62.6014 63.3091 61.8245 64.0507 61.9098C61.6112 64.7964 61.6416 69.2873 61.5124 72.8926C61.4562 74.4461 62.4345 75.2292 60.9902 76.3691C59.7616 77.3389 58.0293 77.0509 56.5768 77.6892C54.7526 78.4907 52.8016 78.9169 50.9409 79.6155C49.0158 80.3379 47.4681 81.6025 45.6156 82.4394C43.9818 83.1769 42.8664 84.2254 41.3721 85.1361C40.8166 85.4745 39.9564 85.9659 39.2939 85.5614C38.8792 85.3079 38.3624 84.8916 38.9038 84.403ZM66.4594 60.2009C66.5653 59.7911 68.6479 58.713 69.1602 58.3615C69.929 57.8327 71.0673 56.5422 71.9254 57.055C72.2228 55.8638 73.3833 54.5384 74.4084 54.2861C75.5459 54.0055 77.4969 53.0304 78.6159 52.1789C78.9428 51.9303 79.0503 51.5668 79.4351 51.3338C80.105 50.9273 80.7691 51.1492 81.4143 50.5955C81.5128 50.511 82.4054 49.0371 82.4407 49.0515C82.4862 49.2094 82.528 49.3694 82.5641 49.5302C83.2414 49.1544 83.8448 48.8558 84.2669 48.3767C84.3625 48.268 83.7418 47.9853 83.9379 47.77C84.1779 47.5062 84.7132 47.8011 84.9557 47.5509C84.2017 51.2936 84.7628 56.1111 88.5601 58.0087C84.0446 58.4965 79.634 57.1391 75.0627 57.9726C72.8747 58.3722 70.6501 59.0273 68.6598 60.0339C67.4402 60.6509 65.8806 62.8598 64.6668 61.7871C65.1484 61.1447 65.8835 60.7456 66.4594 60.2009ZM88.3694 49.4334C90.0582 47.368 92.6195 46.5508 95.1989 47.2904C98.2188 48.1564 96.9451 50.2665 96.489 52.6096C95.6177 51.3318 93.73 50.0647 92.1224 50.0261C89.8432 49.972 90.7047 51.8708 92.0731 52.5513C93.3173 53.1691 95.4512 53.3414 96.3417 54.4658C97.2085 55.5594 96.8762 57.3483 97.0161 58.6384C96.3422 58.5379 95.6682 58.4378 94.9942 58.3377C95.5599 55.3272 93.0703 55.1816 90.7494 54.3324C88.4038 53.4755 86.448 51.7838 88.3694 49.4334ZM95.9332 42.0201V44.814C94.9946 44.2787 94.0552 43.7434 93.1159 43.2081C94.0552 42.8122 94.9946 42.416 95.9332 42.0201ZM103.481 64.3443C106.617 65.1943 109.73 66.0931 112.745 67.2654C113.839 67.6912 115.038 67.8418 116.111 68.3225C117.132 68.7799 117.286 68.7323 116.922 69.6274C115.904 72.1354 113.494 71.7022 111.382 71.3187C108.075 70.7181 104.838 69.8854 101.573 69.1019C98.3813 68.3369 95.1226 67.8352 91.9796 66.8757C88.7541 65.8921 85.6112 64.9601 82.2934 64.3103C81.3253 64.1208 73.6659 63.4181 73.7242 62.6178C78.5478 61.991 83.5142 62.6084 88.3595 62.6736C93.3948 62.7413 98.597 63.0206 103.481 64.3443ZM99.2251 54.6434C99.285 52.9189 99.3092 51.189 99.5233 49.4752C100.958 51.2465 102.254 51.7764 104.063 50.1163C105.795 48.5268 106.181 47.6982 108.377 49.1926C110.28 50.4884 112.081 50.4285 114.103 49.2943C115.336 48.6023 117.318 45.7751 118.614 46.3572C119.231 46.6345 119.684 47.7527 120.308 48.1642C121.09 48.6794 122.293 49.0371 123.205 49.2373C125.36 49.709 126.643 48.3237 127.995 46.8417C129.956 44.693 129.898 45.9409 131.716 47.4311C133.744 49.0929 135.439 48.2811 137.275 46.8626C138.393 50.1397 138.812 53.7184 139.128 57.1538C139.234 58.3139 139.632 59.9609 138.591 60.7813C137.856 61.3597 136.298 61.3822 135.413 61.7018C132.252 62.8446 129.215 64.4662 126.572 66.5418C125.542 67.3503 124.644 68.3406 123.237 68.1564C121.895 67.9808 120.592 66.8581 119.513 66.1164C118.342 65.3128 117.158 64.3997 115.79 63.9514C114.988 63.6888 113.705 63.784 113.004 63.3028C111.7 62.4078 113.234 60.0606 112.91 58.485C112.664 57.2888 111.976 54.7948 110.328 55.4958C107.876 56.5389 109.303 60.6115 110.651 61.8827C107.893 61.3929 104.84 60.6775 102.179 59.7689C100.125 59.0666 99.1512 56.7469 99.2251 54.6434ZM145.482 63.0424C151.144 61.4524 156.442 60.3805 162.334 60.0909C164.943 59.9625 167.468 60.0437 170.047 60.0671C171.532 60.0807 172.663 58.8833 171.477 57.5058C169.835 55.5988 164.828 56.3248 162.609 56.2391C156.662 56.0094 151.209 56.6854 145.576 58.6458C146.172 57.5485 147.603 57.4061 148.584 56.8388C149.786 56.1423 150.604 54.9949 151.118 53.7216C152.455 50.4105 151.11 47.29 149.711 44.2648C152.458 45.0039 155.301 46.6226 158.063 47.0336C158.643 47.1198 159.014 47.0644 159.526 47.2753C159.841 47.4045 159.94 47.8516 160.33 47.9492C160.518 47.9968 160.97 47.571 161.183 47.6313C162.025 47.8692 161.359 47.9324 161.891 48.2766C162.314 48.5498 162.279 48.9017 163.054 48.7725C163.397 48.7159 163.769 48.1847 163.95 48.1703C164.181 48.1515 164.127 47.8709 164.48 47.9529C165.122 48.1018 165.065 48.9284 165.279 49.3353C165.507 49.7685 165.183 50.3444 165.875 50.5811C166.393 50.7587 166.523 50.2119 166.963 50.2513C167.23 50.2751 167.784 50.6603 168.02 50.8945C168.78 51.6501 169.822 52.4841 170.844 52.9759C170.743 52.8746 171.326 52.6313 171.186 52.5743C171.093 52.5362 171.704 52.6838 171.695 52.6818C172.285 52.8159 172.597 53.7221 172.895 54.0527C173.444 54.6582 174.296 55.2977 175.065 55.5651C176.395 56.0274 176.354 55.4745 176.839 57.0546C177.784 55.5684 178.147 58.0571 179.319 58.3311C179.926 58.4731 179.856 58.213 180.407 58.5309C180.786 58.7487 181.038 59.4157 181.324 59.7377C181.446 59.2734 181.569 58.8086 181.691 58.3451C182.535 59.9445 184.358 62.4808 186.356 62.0222C186.356 62.4586 186.176 62.9804 186.514 63.3529C186.75 63.6134 187.132 63.3176 187.317 63.469C187.478 63.6011 187.864 64.1269 187.987 64.2135C188.23 64.3841 188.672 64.5088 188.883 64.6787C189.069 64.8284 189.162 65.5434 189.368 65.8014C189.756 66.2871 190.427 66.3835 190.744 66.966C190.817 66.3917 190.889 65.817 190.961 65.2427C191.591 65.7292 191.645 66.107 191.799 66.8183C192.019 67.8315 191.727 67.594 192.426 68.0219C193.113 68.4423 193.471 68.3951 194.101 69.1249C194.718 69.8403 194.724 70.2813 195.614 69.5359C195.78 70.0872 195.833 70.8002 196.275 71.2227C196.609 71.5422 197.992 71.5558 198.124 72.3097C195.526 70.1176 197.236 73.4472 198.126 72.3155C198.314 73.5268 199.2 73.9182 200.213 74.7812C201.157 75.5848 201.312 75.5266 201.634 76.8774C201.627 76.8478 202.109 77.1465 202.144 77.2064C201.224 77.3376 202.65 78.3656 202.891 78.5539C203.067 78.6909 203.296 78.3631 203.588 78.5851C203.923 78.8394 204.195 79.417 204.467 79.7652C205.205 80.7095 205.75 81.5209 206.526 82.2884C207.364 83.117 207.771 84.1647 208.575 85.1332C209.467 86.2087 209.95 87.4455 210.696 88.613C211.405 89.7234 212.346 90.6148 213.168 91.6317C214.477 93.2499 214.922 96.8134 217.362 96.9073C217.219 97.0554 217.418 98.1597 217.442 98.3636C217.557 99.3665 217.48 100.332 218.074 101.24C218.209 100.204 218.752 100.603 219.223 101.148C220.006 102.053 219.318 101.825 219.36 102.743C219.41 103.856 219.536 102.995 219.96 103.967C220.292 104.728 220.474 105.221 220.652 106.066C219.274 106.175 218.642 105.049 218.133 103.958C217.92 103.501 217.846 102.751 217.469 102.394C217.068 102.014 216.517 101.984 216.104 101.56C215.313 100.746 214.97 99.4765 214.037 98.6839C212.983 97.7889 212.75 97.3659 211.879 96.2957C210.915 95.1119 209.584 94.2804 208.574 93.1355C207.561 91.9881 207.643 92.6145 206.372 92.1994C205.019 91.7572 202.832 87.505 201.128 89.143C201.196 88.0715 199.591 87.0636 198.78 86.6756C198.43 86.5078 198.022 86.6596 197.671 86.4081C197.29 86.1353 197.263 85.6094 196.879 85.2821C196.879 85.2821 196.291 85.4248 196.172 85.3645C195.929 85.2415 195.927 84.8058 195.712 84.6627C195.119 84.2656 194.411 83.8496 193.78 83.5116C192.249 82.69 190.895 81.6784 189.417 80.6894C188.151 79.8419 186.618 78.3115 185.155 77.8647C183.876 77.4746 183.073 77.6736 182.026 76.8921C181.456 76.4668 181.624 76.3236 180.708 76.059C179.835 75.8071 179.345 75.9368 178.883 75.0118C178.074 73.3931 178.585 70.2337 178.428 68.4185C178.262 66.4922 178.065 64.5179 177.563 62.6449C176.969 60.431 176.184 59.2738 173.81 59.7952C169.105 60.8293 164.456 61.8134 159.73 62.7212C150.312 64.5306 141.055 67.4828 131.844 70.104C131.142 70.3042 127.228 71.2001 128.028 69.1762C128.396 68.2425 130.874 67.8947 131.703 67.6014C136.256 65.9901 140.829 64.3485 145.482 63.0424ZM143.9 58.9227C143.212 59.1848 142.525 59.4469 141.837 59.7094V57.7966C142.525 58.172 143.212 58.5469 143.9 58.9227ZM141.041 48.8086C141.639 49.2972 142.855 48.1215 143.362 47.8832C144.231 47.4767 145.336 47.1276 146.306 47.2109C148.095 47.3659 149.403 49.1269 149.075 50.9121C148.52 53.9329 144.216 55.3612 141.843 56.5422C141.768 55.4716 141.421 54.1848 142.172 53.2589C142.823 52.4549 144.087 52.5132 144.689 51.6579C146.202 49.5088 142.101 49.314 141.184 51.0229C140.822 49.9305 140.461 48.8386 140.099 47.7466C140.972 47.6018 140.588 48.4386 141.041 48.8086ZM145.275 42.8959C144.421 43.448 143.567 44.0002 142.713 44.5523C142.29 42.6412 143.732 42.3897 145.275 42.8959ZM223.086 109.411C221.968 109.945 221.688 108.67 220.884 108.615C221.834 108.031 221.834 108.031 223.086 109.411ZM227.634 137.241C227.773 139.073 227.664 140.926 227.908 142.751C228.094 144.139 228.657 145.431 228.716 146.834C228.848 149.909 227.81 153.04 225.713 155.293C223.73 157.425 220.892 159.26 218.215 160.156C217.009 160.56 215.749 161.454 214.578 161.785C213.282 162.151 212.05 161.355 210.981 162.784C210.268 156.654 210.789 150.25 210.733 144.082C210.676 137.9 210.743 131.717 209.697 125.602C208.766 120.157 206.93 114.031 203.546 109.576C202.172 107.767 200.48 106.285 198.695 104.898C197.768 104.178 196.842 103.409 195.811 102.841C194.223 101.966 192.871 102.087 191.145 101.838C188.674 101.481 186.377 101.179 183.897 101.875C181.589 102.523 179.046 103.261 176.978 104.386C174.918 105.508 172.526 105.97 170.388 106.974C168.933 107.658 165.911 109.94 164.297 109.529C162.735 109.131 160.423 106.48 159.425 105.292C158.15 103.774 157.095 102.015 155.964 100.382C155.567 99.8083 154.758 98.9219 154.655 98.1859C154.475 96.9077 154.987 97.3253 156.208 97.4685C159.347 97.8364 162.3 98.4189 165.308 99.4071C166.805 99.8986 169.733 101.888 171.23 100.696C173.516 98.8759 170.043 95.7481 168.771 94.6975C166.603 92.907 164.082 91.5775 161.772 89.9863C159.317 88.2959 156.071 86.4959 154.491 83.8927C159.104 85.2546 163.713 86.8146 168.192 88.5703C170.241 89.3735 172.267 90.2222 174.191 91.2904C175.272 91.8901 177.457 93.5129 178.758 92.7355C181.588 91.0463 175.089 86.1398 174.151 85.1373C172.693 83.5793 171.265 82.0361 169.664 80.6226C168.584 79.6688 166.886 78.9981 166.384 77.5915C168.177 78.2409 169.627 79.5125 171.307 80.3764C172.186 80.8293 172.988 81.0898 173.959 81.2284C174.994 81.3765 175.118 81.5414 175.933 81.9529C176.568 82.274 177.221 82.7027 177.934 82.9209C178.442 83.0768 179.33 83.1035 179.774 83.3919C180.001 83.7155 180.235 84.0342 180.478 84.3472C180.749 84.4268 181.015 84.5183 181.278 84.6229C181.672 84.974 181.906 85.4585 182.289 85.8207C185.071 88.4509 188.791 90.3334 191.909 92.537C194.859 94.6217 197.99 96.5074 200.824 98.7824C204.084 101.401 207.469 104.216 210.242 107.356C211.809 109.13 213.098 111.142 214.415 113.105C215.368 114.526 216.754 115.704 217.578 117.169C219.375 120.364 220.866 123.816 222.8 126.959C224.771 130.162 227.338 133.343 227.634 137.241ZM201.128 155.775C201.666 153.558 204.697 150.97 206.635 149.992C205.658 152.408 203.057 154.055 201.128 155.775ZM206.127 163.508C204.475 166.936 197.209 167.328 198.195 162.255C198.678 159.769 200.728 158.244 202.488 156.617C203.301 155.866 205.294 153.177 206.553 153.61C206.494 155.543 206.38 157.485 206.384 159.419C206.387 160.709 206.712 162.295 206.127 163.508ZM204.027 123.995C204.698 125.5 205.365 126.754 204.122 128.101C203.561 128.709 201.732 130.039 200.905 129.744C198.249 128.797 203.312 124.672 204.027 123.995ZM187.964 110.598C188.604 110.563 189.225 110.658 189.857 110.619C190.487 110.58 190.553 110.469 191.137 110.548C191.198 110.638 191.26 110.727 191.321 110.817C191.401 111.418 191.717 111.483 192.268 111.013C193.034 111.183 193.532 111.297 194.265 111.711C192.287 113.137 189.88 114.795 187.456 115.274C183.624 116.03 184.682 110.779 187.964 110.598ZM129.218 142.665C128.821 143.464 127.678 141.467 127.395 141.095C127.923 141.093 129.62 141.858 129.218 142.665ZM160.008 121.623C162.985 119.886 166.521 118.361 169.719 117.067C170.281 119.776 167.539 123.273 165.85 125.127C164.484 126.626 162.838 128.181 160.986 129.044C158.984 129.976 156.796 129.567 156.893 126.95C156.929 125.993 157.147 124.454 157.536 123.58C158.038 122.452 158.987 122.218 160.008 121.623ZM119.762 72.3454C120.205 72.3196 125.019 71.6973 124.994 72.2962C124.918 74.0966 120.246 72.683 119.762 72.3454ZM85.7227 107.105C88.2652 103.969 92.3697 100.582 92.4296 96.1981C92.5182 89.7464 85.3585 92.9652 81.7589 93.2335C83.6623 91.3634 93.227 83.5174 87.5695 80.7309C85.9434 79.9297 83.6319 80.7124 82.0001 81.132C79.1049 81.8766 76.4131 83.1662 73.5687 84.0634C75.6013 81.8999 79.1127 79.4412 78.9978 76.1648C78.8571 72.1764 75.5833 73.1408 72.7524 73.7258C71.6646 73.951 66.8048 75.8843 65.8917 74.5716C65.5574 74.0908 66.0985 73.4801 66.2129 73.0518C66.4156 72.2946 66.3528 72.03 66.3598 71.2563C66.3737 69.6955 67.4107 67.6908 66.5649 66.2391C66.3717 66.5689 66.2059 66.9122 66.0681 67.2687C65.7892 66.4241 65.9766 65.5278 65.6977 64.6832C72.7651 66.4906 79.9548 67.48 87.0666 69.0228C90.6669 69.8038 94.0552 71.1484 97.7048 71.7539C101.386 72.3639 105.002 73.2979 108.69 73.88C112.054 74.4104 115.278 75.2944 118.609 75.9721C121.857 76.6329 125.188 75.1849 128.358 74.4514C135.459 72.8094 142.556 71.1271 149.666 69.5339C157.87 67.6945 166.405 66.1218 174.258 63.0543C174.41 67.1428 174.737 71.2235 175.236 75.2841C171.768 73.6445 166.622 71.5065 163.116 74.4403C161.712 75.6139 161.28 77.6408 161.834 79.364C162.438 81.2403 164.287 82.1116 165.507 83.5239C161.794 82.5719 152.215 75.8609 150.511 82.6445C149.306 87.4357 155.18 90.5303 158.052 93.227C155.2 92.6687 151.381 90.3883 149.706 94.0531C148.259 97.2216 150.002 100.669 151.788 103.282C152.755 104.698 153.844 106.03 154.872 107.402C155.416 108.128 155.948 108.864 156.519 109.568C157.092 110.274 158.174 111.014 158.576 111.774C159.385 113.307 157.752 113.4 156.483 113.954C154.898 114.646 153.537 115.807 152.088 116.733C148.769 118.852 145.868 120.82 141.946 121.497C137.908 122.194 134.019 122.922 130.034 123.895C126.062 124.864 122.819 125.795 118.759 124.543C116.907 123.971 115.4 123.464 113.436 123.571C111.373 123.684 110.167 123.577 108.472 122.299C101.175 116.804 93.2541 112.294 85.7227 107.105ZM72.5674 101.588C75.3876 100.173 78.2266 98.7512 81.1399 97.5354C83.5511 96.5283 87.2126 95.3555 89.8523 95.7969C89.1082 97.7085 87.7504 99.2767 86.2937 100.684C85.0057 101.929 83.3965 103.808 81.8381 104.677C80.4225 105.465 78.7759 104.216 77.38 103.693C75.8462 103.118 73.7353 102.85 72.5674 101.588ZM73.2763 108.727C74.6816 108.143 77.702 110.102 78.9802 110.612C81.4923 111.614 84.0179 112.66 86.2318 114.24C83.5285 117.364 80.4672 120.22 76.8295 122.226C74.4363 123.547 70.4023 125.061 68.1446 122.664C65.3084 119.652 68.718 113.514 70.726 110.933C70.7925 111.374 70.8593 111.815 70.9262 112.257C71.5669 111.232 72.0559 109.234 73.2763 108.727ZM124.87 135.464C123.117 135.833 122.521 135.5 121.363 134.155C120.581 133.246 119.812 132.302 118.93 131.485C118.03 130.651 115.806 128.64 118.639 129.798C121.222 130.854 123.433 131.381 126.274 130.968C129.523 130.495 132.551 129.122 135.754 128.427C133.998 129.963 132.255 131.515 130.496 133.047C128.638 134.665 127.231 134.966 124.87 135.464ZM125.271 147.82C121.429 150.712 113.693 150.399 116.297 144.037C116.692 143.071 117.246 142.161 117.886 141.338C118.099 141.063 118.479 140.494 118.784 140.309C119.634 139.794 119.398 139.731 120.215 140.591C120.92 141.332 126.429 147.389 125.271 147.82ZM124.132 136.766C124.484 136.651 125.967 135.792 126.305 136.267C126.647 136.749 123.739 138.415 124.132 136.766ZM152.104 180.864C151.24 182.932 144.326 185.924 145.614 181.757C146.184 179.911 146.722 178.514 148.874 178.373C150.116 178.293 152.864 179.044 152.104 180.864ZM164.506 152.851C165.644 151.194 169.403 148.953 171.008 151.425C171.781 152.615 169.905 153.225 168.77 152.919C168.161 152.754 167.663 152.39 167 152.363C166.149 152.328 165.316 152.996 164.506 152.851ZM167.524 154.497C166.75 155.28 162.082 159.208 161.326 158.602C162.85 156.423 164.6 153.989 167.524 154.497ZM159.9 194.244C158.279 194.336 159.089 191.893 159.245 190.917C159.637 191.597 161.701 194.143 159.9 194.244ZM164.018 189.866C163.494 188.933 162.081 187.544 162.401 186.344C162.645 185.426 164.85 184.192 165.774 184.719C167 185.418 165.222 190.021 164.018 189.866ZM202.48 180.082C201.787 182.471 201.068 181.854 198.894 182.318C196.713 182.782 195.205 184.634 193.285 185.628C193.952 184.217 194.365 182.499 195.482 181.354C195.74 181.09 197.323 180.568 196.421 179.956C195.633 179.422 194.5 181.158 194.161 181.631C192.498 183.96 191.334 186.804 190.374 189.483C189.902 190.799 189.523 192.14 189.3 193.522C189.1 194.753 189.315 196.042 189.112 197.242C188.785 199.174 186.161 199.184 184.583 199.682C183.154 200.132 181.732 200.621 180.249 200.864C178.964 201.075 177.63 200.691 176.384 200.945C175.035 201.219 174.429 202.019 172.895 201.838C171.645 201.691 170.475 201.116 169.208 201.058C168.022 201.005 166.84 201.415 165.661 201.081C164.471 200.744 164.529 200.614 164.799 199.445C164.968 199.76 165.138 200.076 165.307 200.391C165.781 200.019 166.11 198.885 166.4 198.353C166.851 197.528 167.218 197.243 167.051 196.217C166.804 194.7 165.437 193.621 165.127 192.178C164.803 190.673 165.916 189.442 166.574 188.186C167.474 186.466 167.462 185.19 166.708 183.411C167.276 183.561 167.844 183.711 168.413 183.862C167.634 182.171 164.992 182.856 163.668 183.357C163.002 183.608 161.946 184.598 161.23 184.573C160.246 184.538 159.733 183.244 159.31 182.531C158.085 180.469 156.688 178.433 155.24 176.518C154.841 175.992 154.319 175.653 154.457 175.053C154.574 174.544 155.716 173.822 156.086 173.508C157.475 172.334 159.243 171.683 160.548 170.447C162.519 168.579 164.793 167.24 166.809 165.409C168.909 163.501 171.073 161.749 173.262 159.946C175.478 158.12 177.398 155.969 179.599 154.125C180.169 155.158 181.274 158.857 182.537 159.144C184.01 159.477 183.966 157.735 183.893 156.686C183.789 155.191 182.959 153.739 182.867 152.313C182.767 150.787 184.235 150.105 185.343 149.223C187.054 147.859 190.841 144.755 188.805 142.199C187.052 139.997 181.349 144.218 179.778 145.487C178.442 146.566 177.41 147.541 175.906 148.392C174.848 148.99 173.074 151.289 171.82 151.077C170.329 150.824 169.746 149.196 167.922 149.25C166.14 149.302 164.625 150.586 163.52 151.875C161.021 154.789 160.162 158.687 157.885 161.725C156.762 163.222 155.306 164.458 154.088 165.876C152.751 167.431 152.467 169.222 151.148 170.744C147.374 165.717 143.262 160.956 139.283 156.094C137.295 153.665 135.349 151.208 133.404 148.746C132.675 147.823 131.853 146.957 131.185 145.988C130.271 144.66 130.436 143.594 130.077 142.114C129.918 141.457 129.173 140.671 129.372 140.044C129.641 139.202 131.524 138.54 132.204 138.195C134.978 136.787 137.494 135.027 140.082 133.306C144.872 130.12 149.718 127.133 154.813 124.412C154.726 125.584 153.963 126.799 154.475 127.976C154.714 127.299 155.091 124.284 155.995 124.155C155.822 124.18 155.964 128.021 156.104 128.569C156.521 130.205 157.73 131.324 159.461 131.313C162.758 131.292 165.713 127.706 167.543 125.331C168.782 123.722 169.972 121.852 170.408 119.838C170.8 118.031 170.369 116.774 172.248 115.856C176.103 113.973 179.989 112.439 184.112 111.441C183.927 113.217 183.412 115.405 185.027 116.683C186.81 118.093 189.142 116.836 190.82 115.903C192.483 114.979 195.046 112.44 196.999 113.177C198.92 113.903 200.256 116.311 201.332 117.911C202.279 119.321 203.31 120.337 202.213 121.909C200.983 123.67 200.183 125.388 199.197 127.301C198.819 128.037 198.457 128.516 198.725 129.269C198.812 129.514 199.799 130.97 200.067 131.178C201.778 132.51 204.088 129.977 205.309 129.016C205.74 133.156 205.836 137.277 206.01 141.429C206.137 144.47 207.314 147.464 204.819 149.686C202.324 151.909 200.241 154.191 198.721 157.199C197.908 158.807 197.18 160.457 196.301 162.031C195.714 163.083 194.476 164.625 195.234 165.863C196.033 165.105 196.271 163.951 196.937 163.095C197.337 164.871 197.739 166.841 199.616 167.593C201.777 168.459 203.925 166.961 205.839 166.127C205.153 170.874 203.814 175.486 202.48 180.082ZM200.271 185.538C198.788 188.708 197.449 192.529 194.71 194.863C194.109 195.376 191.554 197.376 190.582 197.042C189.756 196.756 190.21 195.089 190.354 194.374C191.084 190.747 192.346 188.465 195.288 186.151C196.505 185.193 198.068 183.969 199.637 183.732C201.327 183.478 200.841 184.32 200.271 185.538ZM242.102 260.772C238.257 255.544 232.822 251.481 227.686 247.553C225.36 245.774 222.797 244.439 220.446 242.659C217.789 240.647 215.091 238.706 212.114 237.19C206.471 234.314 200.315 232.31 194.99 228.91C192.393 227.252 189.552 225.649 187.111 223.788C186.038 222.97 185.091 221.924 184.121 220.987C183.221 220.117 181.288 218.853 180.93 217.58C182.428 217.334 183.28 215.881 184.618 215.732C185.058 215.683 187.819 216.414 187.442 215.074C188.443 215.049 188.559 215.034 189.399 214.815C189.746 214.724 190.158 214.866 190.509 214.742C191.047 214.552 191.413 214.004 191.956 213.794C192.342 213.645 193.775 213.811 193.993 213.625C194.586 213.119 193.956 213.163 193.602 212.53C194.755 212.501 195.546 213.083 196.702 212.464C197.054 212.275 197.352 211.841 197.693 211.615C198.298 211.215 198.517 211.836 198.931 211.005C199.319 212.15 199.308 211.834 200.242 211.497C201.173 211.161 201.846 210.919 202.906 210.835C205.438 210.635 207.98 210.942 210.5 210.763C211.423 210.696 212.211 210.487 213.127 210.608C213.933 210.714 213.691 211.275 214.361 210.519C214.517 210.343 214.013 209.863 214.255 209.61C214.361 209.499 214.708 209.577 214.84 209.52C216.019 209.005 216.024 209.724 216.233 210.66C216.924 210.498 217.629 210.352 218.23 209.947C217.926 209.676 217.419 209.377 217.712 208.883C218.709 209.26 219.361 209.086 218.862 210.18C219.865 210.511 220.053 210.079 220.953 209.985C221.486 209.929 222.23 210.26 222.674 209.834C223.159 209.37 222.394 208.865 223.284 208.465C223.467 208.558 223.602 208.699 223.691 208.886C224.171 209.031 224.085 209.221 223.431 209.454C225.182 210.361 224.771 209.347 225.506 208.273C225.676 208.026 226.437 207.257 226.783 207.629C227.309 208.191 226.236 208.371 226.466 208.93C226.864 209.9 228.255 208.657 228.682 208.165C229.006 207.794 229.137 207.082 229.486 206.805C229.969 206.419 230.665 207.015 231.271 206.908C234.038 206.423 236.65 202.703 234.566 200.213C234.006 199.544 233.532 199.677 232.864 199.255C232.204 198.837 231.834 198.115 231.305 197.519C230.096 196.158 228.616 195.138 226.926 194.486C223.005 192.974 218.781 191.87 214.664 191.059C212.757 190.683 210.728 190.108 208.776 190.112C207.626 190.114 205.894 191.009 204.819 190.58C202.728 189.747 205.797 185.483 206.304 184.106C207.791 180.06 208.913 175.746 209.649 171.498C209.793 170.667 209.738 169.59 210.037 168.798C210.381 167.888 210.455 168.016 211.19 167.942C212.52 167.808 213.973 168.505 215.357 168.264C216.891 167.997 218.548 168.121 220.097 167.647C220.809 167.429 221.469 167.192 221.937 166.591C222.085 166.403 221.92 166.239 222.014 166.107C222.042 166.065 222.572 165.494 222.589 165.461C222.584 165.166 222.609 164.873 222.666 164.583C223.203 165.028 222.938 165.963 223.843 165.984C224.004 164.988 224.006 164.787 224.66 164.227C224.61 164.27 225.152 163.809 225.082 163.858C225.115 163.681 225.181 163.515 225.278 163.361C225.583 163.214 225.907 163.135 226.246 163.126C226.953 162.4 226.66 162.012 226.66 161.034C227.23 161.33 227.8 161.626 228.371 161.923C228.509 159.024 230.273 157.437 231.446 155.088C231.946 154.087 232.455 153.305 232.574 152.098C232.643 151.401 232.463 150.787 232.752 150.13C233.013 149.535 233.598 149.214 233.843 148.565C234.324 147.288 233.965 145.659 233.991 144.333C234.028 142.494 234.212 140.662 234.272 138.824C234.39 135.216 234.027 131.509 233.487 127.943C233.229 126.237 232.797 124.582 232.458 122.895C232.179 121.507 231.512 120.206 231.273 118.916C231.174 118.38 231.327 117.898 231.165 117.305C230.952 116.526 230.596 115.759 230.331 114.994C229.713 113.205 229.101 111.42 228.406 109.659C227.057 106.247 225.479 102.937 223.98 99.5909C222.538 96.3728 221.343 93.0551 219.475 90.0499C217.635 87.0903 215.653 84.1803 213.626 81.3474C211.513 78.3968 208.843 75.8617 206.794 72.884C202.948 67.2933 197.583 62.6863 191.97 58.882C180.388 51.0315 167.872 43.1933 153.983 40.5015C151.89 40.0962 149.77 39.8148 147.637 39.7623C146.313 39.7295 144.12 40.3694 142.867 39.9215C141.464 39.4198 141.592 37.8434 141.241 36.6066C140.789 35.0171 139.77 33.9756 138.612 32.8516C137.394 31.669 136.288 30.287 134.769 29.4826C133.229 28.6679 131.413 28.3631 129.707 28.117C128.184 27.8967 125.908 28.1022 124.516 27.4385C123.249 26.8339 123.875 26.2042 125.061 26.7219C125.148 26.1985 125.219 25.8604 125.554 25.456C125.722 25.2525 126.518 24.9674 126.537 24.7779C126.56 24.5557 125.893 23.923 125.797 23.6366C125.592 23.0197 125.708 22.1654 125.952 21.5865C127.149 22.6501 127.495 23.1212 128.831 22.1045C129.395 21.6752 129.568 21.4859 130.222 21.2694C130.399 21.2105 130.797 21.3922 130.951 21.2903C131.542 20.9015 130.998 20.9931 131.279 20.5336C131.208 20.6495 131.704 19.4282 131.681 19.6836C131.741 19.033 131.933 19.233 131.541 18.4337C130.771 16.87 128.812 16.8061 129.811 15.0216C130.203 14.3195 130.549 14.3894 130.66 13.3714C130.719 12.8241 130.646 12.1966 130.643 11.6398C130.638 10.5012 130.853 9.70403 129.786 9.12428C128.76 8.56669 127.814 9.17843 127.398 7.79554C126.962 6.34444 127.401 4.48407 125.829 3.49039C124.68 2.76441 123.022 3.38509 121.753 3.03001C120.481 2.67449 119.311 1.37299 118.02 2.37225C117.103 3.08244 116.616 4.82852 114.888 3.88431C114.108 3.45844 113.679 2.02866 113.186 1.22679C112.403 -0.0512477 111.775 -0.512894 110.569 0.731876C109.825 1.49962 108.258 3.36848 108.162 4.43124C108.057 5.60439 109.08 6.09462 107.795 6.78861C106.517 7.47923 105.8 6.97279 104.762 8.37443C103.733 9.76499 104.529 10.5332 103.337 11.8636C101.847 13.5266 101.054 14.2445 101.075 16.4851C101.089 18.0219 99.7313 19.3493 100.523 20.8073C101.411 22.4413 104.002 23.1208 105.573 23.7857C105.048 24.7547 104.329 25.376 104.941 26.3732C105.495 27.2765 107.063 27.4644 108.035 27.3003C108.688 27.1903 108.712 27.2892 109.226 26.8294C109.563 26.5287 109.101 26.1529 109.795 25.9864C110.533 25.8079 111.713 27.256 112.193 27.6178C111.121 29.0088 108.177 29.2688 106.619 29.974C105.671 30.4039 104.798 31.0401 103.832 31.4245C102.955 31.7732 101.888 31.6923 101.093 32.2318C99.7206 33.1638 99.1492 35.4724 98.3079 36.8298C97.3554 38.3664 96.432 39.0797 94.6045 39.3989C92.325 39.7964 90.4893 39.9564 88.3632 40.9491C85.767 42.1616 83.2077 43.4419 80.6579 44.7488C76.5452 46.8569 72.7245 49.0207 68.9055 51.5701C64.9101 54.2381 61.0238 57.0226 57.1687 59.8099C53.3554 62.5669 50.1542 65.9585 46.8418 69.2927C44.1643 71.9877 41.8147 74.8965 39.1475 77.5907C35.9988 80.7723 33.6827 84.7874 30.7633 88.1626C29.166 90.0085 27.6375 91.824 26.6354 93.999C25.8232 95.7624 24.4105 97.4923 23.4674 99.3419C22.2626 101.707 21.1222 104.034 19.7694 106.321C19.2144 107.259 18.5547 108.064 17.969 108.96C17.2183 110.107 17.2626 111.215 17.0608 112.537C16.8499 112.215 16.6395 111.892 16.4287 111.57C16.0463 112.405 15.5844 113.225 15.2534 114.08C15.0422 114.625 15.0754 115.399 14.8633 115.876C14.5971 116.475 14.273 116.396 13.9412 116.895C13.5863 117.428 13.4719 118.145 13.0982 118.716C11.4816 121.189 10.8597 124.326 10.029 127.148C8.91491 130.933 9.09048 135.283 9.15119 139.186C9.21559 143.308 9.44079 147.43 10.0606 151.509C10.6222 155.203 11.8224 158.746 13.7016 161.985C15.3391 164.807 17.5969 166.451 20.4893 167.897C21.8175 168.561 23.0502 168.356 24.4441 168.462C25.9713 168.578 27.0128 168.992 28.6286 168.628C29.4035 168.453 29.7706 167.888 30.3863 167.7C30.7674 167.584 30.9729 167.774 31.3388 167.729C31.8623 167.666 32.9509 167.409 33.5187 167.471C35.2854 167.664 34.9888 170.335 35.1628 171.698C35.4302 173.798 35.6259 175.922 35.9869 178.009C36.7453 182.399 38.3833 186.5 39.351 190.814C34.865 191.361 31.0168 192.198 26.8122 193.896C22.5941 195.599 18.3291 196.177 13.8899 197.024C9.73696 197.816 5.74237 199.296 2.41806 201.978C0.860101 203.234 -0.758573 204.704 0.385492 206.773C1.1173 208.096 2.43611 208.432 3.57444 209.201C3.80456 208.91 3.13921 208.293 3.01737 208.122C3.97439 208.319 3.94526 208.766 4.64425 209.154C5.25505 209.494 5.75509 209.482 6.42373 209.722C8.05635 210.309 8.85871 211.772 10.4725 212.183C10.9803 212.312 11.6444 212.622 12.1633 212.709C12.7873 212.815 13.2541 212.542 13.8862 212.657C14.2271 212.882 14.5963 213.043 14.9925 213.139C15.2526 213.018 15.5094 212.891 15.7625 212.757C16.6707 212.851 17.2314 213.422 17.9694 213.892C18.0186 213.3 17.9476 212.686 18.5072 212.3C18.7258 212.875 18.3726 213.239 18.9691 213.635C19.7247 214.136 20.717 213.51 21.3934 213.193C21.5849 215.104 26.0098 214.992 27.4123 214.964C29.3547 214.927 31.2949 214.156 33.2545 214.586C34.2542 214.806 35.3211 215.034 36.3163 215.319C37.5145 215.661 38.9629 215.968 40.1423 216.399C40.6115 216.571 41.1858 217.122 41.685 217.084C42.0825 217.055 42.1892 216.468 42.6519 216.485C43.1753 216.504 43.3513 217.087 43.8042 217.263C44.4827 217.525 45.1062 217.026 45.7506 217.278C45.9824 217.369 46.2962 217.757 46.5928 217.884C47.0428 218.076 47.9337 218.078 48.4346 218.17C49.1446 218.302 49.7805 218.214 50.3888 218.257C50.8794 218.292 50.8687 218.622 51.1034 218.644C51.3729 218.668 51.8417 217.742 52.2035 217.606C52.7303 217.409 53.6865 217.88 54.2238 217.962C50.3314 223.239 45.6382 227.902 40.5508 231.985C35.0635 236.39 29.4441 240.789 23.5597 244.652C18.2167 248.16 13.0449 251.194 8.9026 256.146C5.4097 260.322 -0.150235 264.789 0.706686 270.841C1.5632 276.888 8.12936 279.349 13.3907 280.503C20.0081 281.955 26.82 281.371 33.4551 282.187C36.2847 282.535 39.4285 282.35 42.277 282.053C45.6411 281.703 48.5244 279.507 51.4168 277.92C56.619 275.064 61.0665 271.243 66.1908 268.298C72.6068 264.611 78.9551 260.704 85.9889 258.234C89.2612 257.085 92.6298 255.774 95.2694 253.411C95.6624 253.06 95.9549 252.529 96.3988 252.239C97.1531 251.747 97.3554 252.246 97.7935 252.097C98.1302 251.982 98.4568 251.618 98.748 251.509C99.486 251.232 99.8154 251.346 100.642 251.346C99.9327 250.938 99.2833 249.883 100.02 249.024C101.28 247.553 101.497 249.904 101.971 250.449C102.372 249.933 102.218 249.474 102.116 248.888C102.455 249.112 102.794 249.335 103.134 249.56C102.9 248.425 103.122 247.38 103.723 246.392C104.277 245.481 104.414 245.609 104.567 244.347C106.288 245.918 106.625 242.104 106.78 240.713C106.93 239.365 106.781 238.397 107.668 237.218C108.62 235.952 110.068 235.151 111.277 234.168C113.186 232.614 115.286 230.651 117.926 232.141C120.01 233.319 121.144 236.203 123.1 237.685C124.286 238.585 125.538 238.676 126.294 240.07C126.905 241.197 127.104 242.547 127.681 243.704C129.079 246.509 131.091 249.72 133.387 251.871C135.524 253.875 138.268 253.865 140.769 255.107C143.244 256.337 145.817 257.67 148.438 258.561C151.3 259.534 154.386 259.949 157.172 261.128C158.606 261.735 159.888 262.649 161.334 263.23C162.893 263.856 164.536 264.298 166.116 264.871C172.378 267.146 178.505 269.934 185.082 271.195C188 271.754 190.701 273.273 193.639 273.593C194.9 273.73 195.928 273.903 197.162 274.219C199.097 274.713 198.687 274.976 199.4 276.59C200.573 279.246 203.437 277.673 205.644 277.739C209.178 277.846 212.659 277.275 216.187 277.247C222.357 277.2 228.298 276.505 234.267 274.479C240.259 272.445 247.082 267.544 242.102 260.772Z" fill="#088C1C"/>
<path fill-rule="evenodd" clip-rule="evenodd" d="M170.777 53.2345C170.862 53.319 171.06 53.3703 170.777 53.2345V53.2345Z" fill="black"/>
<path fill-rule="evenodd" clip-rule="evenodd" d="M62.0899 166.368C63.43 165.01 69.1319 165.285 69.563 167.714C70.0434 170.426 64.9486 174.522 63.0838 175.67C60.6845 177.148 57.7556 177.425 58.181 173.714C58.5026 170.912 60.1816 168.302 62.0899 166.368ZM66.7986 163.572C66.9726 164.324 65.6911 164.068 65.3383 163.89C65.1718 163.549 66.6247 162.818 66.7986 163.572ZM56.966 168.545C58.1031 168.647 59.4063 166.823 60.2645 166.201C60.6435 166.788 58.1429 170.01 57.8676 170.745C57.1805 172.582 56.7982 174.903 57.7351 176.735C60.4729 182.089 67.4792 174.443 69.2316 171.772C70.4577 169.905 71.3064 167.588 69.5745 165.758C68.958 165.106 67.9394 164.925 67.3668 164.305C66.6128 163.49 67.206 162.438 65.6903 162.616C64.6442 162.739 63.3886 163.682 62.3717 164.024C61.146 164.435 60.0442 164.862 58.9744 165.624C58.7332 165.796 55.561 168.419 56.966 168.545Z" fill="#088C1C"/>
<path fill-rule="evenodd" clip-rule="evenodd" d="M137.345 170.343C136.63 174.021 132.985 177.795 129.149 177.942C125.329 178.087 124.093 174.085 124.767 170.896C125.342 168.175 127.693 163.449 131.048 163.97C133.685 164.379 137.958 167.189 137.345 170.343ZM134.913 164.194C132.491 162.32 129.145 161.453 126.338 162.94C125.417 163.427 121.743 165.578 122.861 167.033C124.369 165.865 125.67 164.244 127.629 163.856C127.299 165.374 125.418 166.74 124.755 168.219C123.98 169.946 123.556 171.924 123.683 173.822C123.909 177.2 126.172 179.826 129.676 179.361C132.884 178.936 135.688 176.478 137.218 173.714C139.261 170.023 138.11 166.668 134.913 164.194Z" fill="#088C1C"/>
<path fill-rule="evenodd" clip-rule="evenodd" d="M112.422 178.705C110.697 181.258 108.068 183.66 105.028 184.449C101.092 185.469 102.198 182.217 103.374 179.883C104.414 177.819 106.198 174.269 108.915 174.288C109.837 174.294 111.554 174.74 112.362 175.233C113.955 176.205 113.33 177.362 112.422 178.705ZM108.748 173.093C109.367 172.404 112.108 169.449 112.475 171.753C113.262 170.84 112.641 170.083 111.633 169.987C110.418 169.871 109.09 171.224 108.213 171.897C106.408 173.28 105.018 174.696 103.822 176.636C102.503 178.774 99.141 183.605 102.084 185.727C105.265 188.02 109.894 183.785 111.886 181.601C113.16 180.204 114.847 178.153 114.362 176.104C113.768 173.588 110.841 173.324 108.748 173.093Z" fill="#088C1C"/>
<path fill-rule="evenodd" clip-rule="evenodd" d="M95.1763 131.945C93.3964 133.976 89.7809 136.935 86.8015 136.586C84.0843 136.268 85.1451 133.219 86.1066 131.743C87.5514 129.524 89.4867 127.442 92.2831 127.32C93.4903 127.268 95.0549 127.293 95.9897 128.207C97.2667 129.455 96.1169 130.873 95.1763 131.945ZM94.9872 126.303C92.9021 125.583 92.0829 125.308 90.0565 126.453C88.4292 127.373 86.9861 128.673 85.8695 130.149C84.1984 132.358 82.5128 137.328 86.804 137.949C91.5111 138.632 102.708 128.972 94.9872 126.303Z" fill="#088C1C"/>
<path fill-rule="evenodd" clip-rule="evenodd" d="M101.403 138.982C100.049 140.365 98.3583 141.494 96.4287 141.879C97.245 140.058 99.0676 136.079 101.229 135.525C102.224 135.269 103.359 135.604 103.278 136.738C103.218 137.558 101.937 138.436 101.403 138.982ZM103.146 134.168C102.025 133.606 102.378 133.222 101.074 133.663C100.046 134.01 98.7493 134.613 97.8932 135.307C97.4263 135.686 95.9722 137.029 96.1502 137.712C96.4726 138.954 97.5572 137.051 97.8423 136.685C98.3308 137.083 95.8323 140.658 95.6838 141.247C95.1296 143.438 96.8496 143.67 98.5351 142.953C100.808 141.987 107.539 136.369 103.146 134.168Z" fill="#088C1C"/>
<path fill-rule="evenodd" clip-rule="evenodd" d="M136.473 193.127C136.64 191.674 136.879 190.138 138.212 189.323C139.413 188.587 140.657 188.694 140.835 190.202C141 191.602 139.628 194.09 138.518 194.853C136.973 195.917 136.675 194.591 136.473 193.127ZM138.458 196.432C141.631 194.576 143.631 186.061 137.782 188.447C134.458 189.803 135.681 198.057 138.458 196.432Z" fill="#088C1C"/>
<path fill-rule="evenodd" clip-rule="evenodd" d="M111.36 161.124C111.86 160.098 112.433 159.758 113.447 159.309C112.771 159.948 112.08 160.538 111.36 161.124ZM112.092 158.597C111.373 159.318 109.726 160.417 109.957 161.656C110.168 162.786 111.031 162.721 111.814 162.369C113.456 161.631 114.37 158.399 116.088 158.096C114.183 156.888 113.738 156.944 112.092 158.597Z" fill="#088C1C"/>
<path fill-rule="evenodd" clip-rule="evenodd" d="M112.344 94.4072C112.436 97.8493 112.516 101.291 112.592 104.733C112.619 105.943 112.33 107.667 112.693 108.826C112.853 109.336 114.303 111.549 114.817 111.692C116.617 112.193 115.974 107.681 115.987 106.57C116.03 102.822 115.975 99.07 115.96 95.322C115.952 93.3903 116.497 77.1946 113.991 77.2737C113.559 77.2873 112.496 79.1389 112.336 79.5102C111.832 80.676 112.017 82.4042 112.029 83.6471C112.063 87.2323 112.249 90.8224 112.344 94.4072Z" fill="#088C1C"/>
<path fill-rule="evenodd" clip-rule="evenodd" d="M127.519 104.441C127.66 105.392 127.586 106.979 128.657 107.473C129.589 107.902 129.947 107.391 130.295 106.594C131.097 104.759 130.808 101.955 130.793 100.058C130.763 96.299 130.34 92.5558 130.048 88.8111C129.919 87.1678 130.186 85.5175 129.981 83.7979C129.89 83.0436 129.801 80.008 128.402 80.1496C127.137 80.2771 127.251 83.4583 127.182 84.2779C126.609 91.1013 126.509 97.6297 127.519 104.441Z" fill="#088C1C"/>
<path fill-rule="evenodd" clip-rule="evenodd" d="M187.212 182.794C186.676 185.534 177.931 195.077 175.729 189.74C174.422 186.573 177.254 183.126 179.463 181.294C180.829 180.159 182.537 179.046 184.399 179.389C185.981 179.682 187.552 181.054 187.212 182.794ZM182.696 177.879C182.078 178.025 176.916 181.65 176.868 181.603C176.42 181.153 179.676 176.299 180.011 175.874C182.772 172.376 184.605 175.025 186.331 177.774C185.964 176.132 184.952 173.748 183.262 173.053C181.127 172.177 179.463 174.341 178.436 175.897C176.985 178.096 176.185 180.483 175.378 182.965C174.993 184.149 174.555 185.222 173.904 186.289C173.262 187.342 172.137 188.503 172.303 189.835C173.217 189.327 173.702 188.332 174.278 187.513C174.92 187.773 174.699 189.821 174.83 190.342C175.157 191.652 176.053 192.677 177.437 192.902C180.016 193.322 182.801 190.936 184.526 189.314C186.344 187.606 188.3 185.265 188.284 182.636C188.268 179.889 185.566 177.199 182.696 177.879Z" fill="#088C1C"/>
<path fill-rule="evenodd" clip-rule="evenodd" d="M189.69 133.846C188.227 136.086 185.658 138.771 182.941 139.292C180.946 139.674 179.63 138.195 180.431 136.2C181.108 134.513 183.414 133.448 184.926 132.705C186.125 132.117 191.716 130.746 189.69 133.846ZM188.613 130.182C185.615 130.069 183.197 132.236 180.961 133.966C181.466 131.979 182.608 129.817 184.216 128.523C186.405 126.763 188.48 127.856 190.784 128.736C190.215 126.942 187.664 126.297 186.038 126.551C183.983 126.872 182.505 128.626 181.466 130.323C180.226 132.348 179.802 134.734 178.343 136.634C177.675 137.503 173.538 140.756 174.475 142.086C176.02 140.445 177.565 138.805 179.111 137.165C179.511 139.103 179.953 141.311 182.428 141.123C184.405 140.972 186.659 139.291 188.105 138.007C189.971 136.348 193.645 130.372 188.613 130.182Z" fill="#088C1C"/>
<path fill-rule="evenodd" clip-rule="evenodd" d="M146.613 149.31C145.343 149.894 142.547 150.687 141.837 148.933C140.851 146.496 144.025 142.222 145.536 140.598C146.465 139.599 147.096 139.082 148.392 139.728C149.426 140.245 150.946 141.712 151.343 142.84C152.195 145.261 148.6 148.396 146.613 149.31ZM149.527 137.606C150.562 137.839 150.688 139.152 149.395 138.648C148.426 138.27 148.201 137.306 149.527 137.606ZM150.826 139.456C150.44 138.277 151.225 136.429 149.323 136.345C148.246 136.297 146.271 137.392 145.33 137.838C144.026 138.455 142.798 139.397 142.117 140.724C141.487 141.953 141.937 142.277 142.898 141.257C143.016 141.337 140.724 147.25 140.704 147.842C140.614 150.55 142.531 152.333 145.222 151.853C147.696 151.411 149.926 149.388 151.287 147.347C151.976 146.313 152.542 145.13 152.593 143.864C152.673 141.923 151.378 141.142 150.826 139.456Z" fill="#088C1C"/>
<path fill-rule="evenodd" clip-rule="evenodd" d="M166.232 134.059C164.067 133.069 161.648 136.452 162.692 138.462C164.061 141.098 170.741 136.119 166.232 134.059ZM163.65 137.84C163.2 137.039 166.259 135.858 166.743 135.838C166.501 136.28 164.268 138.939 163.65 137.84Z" fill="#088C1C"/>
<path fill-rule="evenodd" clip-rule="evenodd" d="M18.8472 132.123C18.7262 131.267 16.8073 132.51 16.8183 133.061C17.1358 132.426 19.0991 133.907 18.8472 132.123Z" fill="#088C1C"/>
<path fill-rule="evenodd" clip-rule="evenodd" d="M123.803 67.4262C126.246 67.2466 123.133 54.9207 121.352 56.0106C119.422 57.192 121.56 67.5907 123.803 67.4262Z" fill="#088C1C"/>
<path fill-rule="evenodd" clip-rule="evenodd" d="M128.365 61.6708C130.654 61.9985 130.29 56.7426 129.059 55.802C126.787 54.0656 125.586 61.2729 128.365 61.6708Z" fill="#088C1C"/>
</svg>
