<svg width="17" height="14" viewBox="0 0 17 14" fill="none" xmlns="http://www.w3.org/2000/svg">
<path fill-rule="evenodd" clip-rule="evenodd" d="M0 6.50063C0 6.30909 0.0639625 6.1254 0.177817 5.98997C0.291671 5.85453 0.44609 5.77844 0.607104 5.77844H14.9263L11.1051 1.23441C10.9912 1.09881 10.9271 0.914882 10.9271 0.723103C10.9271 0.531324 10.9912 0.3474 11.1051 0.211792C11.2191 0.0761837 11.3738 4.51847e-09 11.535 0C11.6962 -4.51847e-09 11.8508 0.0761837 11.9648 0.211792L16.8216 5.98932C16.8782 6.05641 16.923 6.1361 16.9536 6.22384C16.9842 6.31158 17 6.40564 17 6.50063C17 6.59562 16.9842 6.68968 16.9536 6.77742C16.923 6.86516 16.8782 6.94486 16.8216 7.01194L11.9648 12.7895C11.8508 12.9251 11.6962 13.0013 11.535 13.0013C11.3738 13.0013 11.2191 12.9251 11.1051 12.7895C10.9912 12.6539 10.9271 12.4699 10.9271 12.2782C10.9271 12.0864 10.9912 11.9025 11.1051 11.7668L14.9263 7.22282H0.607104C0.44609 7.22282 0.291671 7.14674 0.177817 7.0113C0.0639625 6.87586 0 6.69217 0 6.50063V6.50063Z" fill="#F2F2F2"/>
</svg>
